<svg width="41" height="41" viewBox="0 0 41 41" fill="none" xmlns="http://www.w3.org/2000/svg">
<path d="M20.1904 1C30.7891 1 39.3817 9.59181 39.3818 20.1904C39.3818 30.7892 30.7892 39.3818 20.1904 39.3818C9.59182 39.3817 1 30.7891 1 20.1904C1.00014 9.59191 9.59191 1.00016 20.1904 1Z" stroke="#E7E7E7" stroke-width="2"/>
<path d="M25.7861 13.3828C25.1055 13.3828 24.5762 13.9122 24.5762 14.5928C24.5762 15.2734 25.1055 15.8026 25.7861 15.8026C26.4667 15.8026 26.996 15.2734 26.996 14.5928C26.996 13.9122 26.4667 13.3828 25.7861 13.3828Z" fill="#E7E7E7"/>
<path d="M20.2666 14.9688C17.3931 14.9688 15.0488 17.3129 15.0488 20.1865C15.0488 23.0601 17.3931 25.4043 20.2666 25.4043C23.1402 25.4043 25.4845 23.0601 25.4845 20.1865C25.4845 17.3129 23.1402 14.9688 20.2666 14.9688ZM20.2666 23.4382C18.4518 23.4382 16.9393 21.9257 16.9393 20.1108C16.9393 18.2959 18.4518 16.7836 20.2666 16.7836C22.0815 16.7836 23.594 18.2959 23.594 20.1108C23.594 21.9257 22.0815 23.4382 20.2666 23.4382Z" fill="#E7E7E7"/>
<path d="M24.4257 30.6997H16.0318C12.5533 30.6997 9.67969 27.9018 9.67969 24.3476V15.9536C9.67969 12.4751 12.4777 9.60156 16.0318 9.60156H24.4257C27.9043 9.60156 30.7779 12.3995 30.7779 15.9536V24.3476C30.7779 27.8261 27.9799 30.6997 24.4257 30.6997ZM15.9562 11.6433C13.5364 11.6433 11.6458 13.6094 11.6458 15.9536V24.3476C11.6458 26.7675 13.612 28.6579 15.9562 28.6579H24.3501C26.77 28.6579 28.6605 26.6918 28.6605 24.3476V15.9536C28.6605 13.5338 26.6944 11.6433 24.3501 11.6433H15.9562Z" fill="#E7E7E7"/>
</svg>
